<svg width="100%" height="100%" viewBox="0 0 20 20" fill="none" xmlns="http://www.w3.org/2000/svg">
<path d="M10 0C4.47697 0 0 4.47697 0 10C0 15.523 4.47697 20 10 20C15.523 20 20 15.523 20 10C20 4.47697 15.5242 0 10 0ZM14.5856 14.4232C14.4065 14.717 14.022 14.8101 13.7282 14.6298C11.3804 13.1956 8.4249 12.8708 4.94386 13.6661C4.60831 13.7426 4.27393 13.5324 4.19752 13.1968C4.1211 12.8612 4.33007 12.5269 4.66683 12.4504C8.47624 11.5799 11.7435 11.9549 14.3802 13.5658C14.674 13.7461 14.7671 14.1294 14.5868 14.4232H14.5856ZM15.8097 11.7005C15.584 12.0671 15.1039 12.1829 14.7373 11.9572C12.0492 10.3045 7.952 9.82686 4.7719 10.7917C4.35993 10.9159 3.92403 10.6843 3.79866 10.2723C3.67448 9.86028 3.90734 9.42559 4.31814 9.30021C7.94962 8.198 12.4648 8.73179 15.5517 10.6293C15.9183 10.855 16.0341 11.3351 15.8084 11.7017L15.8097 11.7005ZM17.1961 8.53834C16.9334 8.98255 16.3578 9.12945 15.9147 8.86555C12.6917 6.95128 7.374 6.77572 4.29662 7.70959C3.80224 7.85886 3.28039 7.58062 3.12993 7.08621C2.98066 6.59183 3.2589 6.06997 3.75328 5.91952C7.28566 4.84714 13.1586 5.05372 16.8689 7.257C17.3143 7.5209 17.46 8.09531 17.1961 8.53834Z" fill="black"/>
</svg>
