<svg width="40" height="40" viewBox="0 0 40 40" fill="none" xmlns="http://www.w3.org/2000/svg">
<rect width="40" height="40" rx="8" fill="black"/>
<path d="M20 5C11.7154 5 5 11.7154 5 20C5 28.2846 11.7154 35 20 35C28.2846 35 35 28.2846 35 20C35 11.7154 28.2864 5 20 5ZM26.8784 26.6348C26.6097 27.0754 26.0329 27.2152 25.5923 26.9447C22.0707 24.7934 17.6373 24.3062 12.4158 25.4992C11.9125 25.6138 11.4109 25.2986 11.2963 24.7952C11.1817 24.2919 11.4951 23.7903 12.0002 23.6757C17.7144 22.3698 22.6152 22.9323 26.5704 25.3487C27.011 25.6192 27.1507 26.1942 26.8802 26.6348H26.8784ZM28.7145 22.5508C28.3759 23.1007 27.6558 23.2744 27.1059 22.9359C23.0738 20.4568 16.928 19.7403 12.1578 21.1876C11.5399 21.3739 10.8861 21.0264 10.698 20.4084C10.5117 19.7904 10.861 19.1384 11.4772 18.9503C16.9244 17.297 23.6971 18.0977 28.3276 20.944C28.8775 21.2826 29.0512 22.0026 28.7127 22.5525L28.7145 22.5508ZM30.7941 17.8075C30.4001 18.4738 29.5366 18.6942 28.8721 18.2983C24.0375 15.4269 16.061 15.1636 11.4449 16.5644C10.7034 16.7883 9.92059 16.3709 9.69489 15.6293C9.47098 14.8877 9.88834 14.1049 10.6299 13.8793C15.9285 12.2707 24.7379 12.5806 30.3033 15.8855C30.9715 16.2813 31.19 17.143 30.7941 17.8075Z" fill="#1ED760"/>
</svg>
