<svg width="40" height="40" viewBox="0 0 40 40" fill="none" xmlns="http://www.w3.org/2000/svg">
<path d="M20 0C8.95393 0 0 8.95393 0 20C0 31.0461 8.95393 40 20 40C31.0461 40 40 31.0461 40 20C40 8.95393 31.0485 0 20 0ZM29.1712 28.8464C28.813 29.4339 28.0439 29.6203 27.4564 29.2596C22.7609 26.3912 16.8498 25.7416 9.88772 27.3322C9.21662 27.4851 8.54786 27.0648 8.39503 26.3936C8.24221 25.7225 8.66014 25.0537 9.33366 24.9009C16.9525 23.1598 23.487 23.9097 28.7605 27.1316C29.348 27.4922 29.5343 28.2589 29.1737 28.8464H29.1712ZM31.6193 23.401C31.1679 24.1342 30.2078 24.3659 29.4746 23.9145C24.0984 20.609 15.904 19.6537 9.54379 21.5834C8.71986 21.8319 7.84807 21.3686 7.59731 20.5446C7.34897 19.7206 7.81469 18.8512 8.63628 18.6004C15.8992 16.396 24.9295 17.4636 31.1034 21.2587C31.8366 21.7101 32.0683 22.6701 31.6169 23.4034L31.6193 23.401ZM34.3921 17.0767C33.8668 17.9651 32.7155 18.2589 31.8294 17.7311C25.3833 13.9026 14.748 13.5514 8.59324 15.4192C7.60448 15.7177 6.56079 15.1612 6.25986 14.1724C5.96131 13.1837 6.51779 12.1399 7.50655 11.839C14.5713 9.69428 26.3172 10.1074 33.7378 14.514C34.6286 15.0418 34.92 16.1906 34.3921 17.0767Z" fill="white"/>
</svg>
